<svg xmlns="http://www.w3.org/2000/svg" width="650" height="100" viewBox="0 0 650 100">
  <defs>
    <style>
      .cls-1 {
        fill: #faf4de;
        fill-rule: evenodd;
      }
    </style>
  </defs>
  <path id="BOURBON_copy" data-name="BOURBON copy" class="cls-1" d="M623.887,471.2c0,5.1,0,18.749-.3,25.949-0.45,12.6-1.2,15.6-9.9,16.2-0.9,0-1.2,1.65,0,1.65,4.5-.15,11.85-0.45,14.1-0.45,4.5,0,13.5,1.05,20.4,1.05,16.949,0,31.049-9,30.6-26.4-0.3-12.449-7.95-21.9-24.9-24.749,7.949-3,15.9-9.9,15.9-22.049,0-10.8-7.35-19.8-24.9-20.4-6.6-.3-12.149.15-18,0.15-4.8,0-10.8-.15-14.4-0.3-1.05,0-.9,1.8,0,1.65,10.05,0.6,10.8,4.5,11.1,16.349C623.887,450.8,623.887,460.552,623.887,471.2Zm35.4-23.249c-0.3,8.1-3.9,13.2-9.149,15.449-1.8.75-4.5,1.05-8.55,1.05-2.25,0-5.25,0-7.05-.15,0-8.4-.15-31.949-0.15-36.748,0-2.25,0-2.4,6-2.1C653.736,426.054,659.735,434.6,659.285,447.953Zm8.7,44.848c-0.3,12.3-8.25,19.2-19.2,19.2-5.25,0-8.7-.6-11.4-1.95-2.25-1.2-2.55-2.25-2.7-4.8-0.15-2.7-.3-7.949-0.3-12.149,0-7.5.15-18.149,0.15-25.049h6.75C657.935,468.052,668.285,477.652,667.985,492.8Zm113.278-26.1c0-23.849-16.8-46.948-47.4-46.948-30.748,0-53.1,21.449-51.9,50.848,1.2,30.9,21.15,46.5,49.8,46.5C759.814,517.1,781.263,495.651,781.263,466.7Zm-52.947-42.6c28.648-.75,41.248,24.6,41.248,49.2,0,23.249-14.4,39.9-37.049,39.9-23.7,0-38.4-18.6-38.4-45C694.117,442.553,705.216,424.7,728.316,424.1Zm140.653,46.048c0-8.4.15-23.4,0.45-34.8,0.3-8.549,2.25-11.249,7.8-11.849a0.828,0.828,0,1,0,0-1.65c-3.75.15-9.45,0.45-12,.45s-8.7-.3-12.9-0.45a0.825,0.825,0,1,0,0,1.65c6.3,0.6,8.7,1.8,9,11.849,0.45,14.1.3,29.249,0.3,35.7,0,21.749-5.7,42-29.549,42-24.9,0-29.248-16.2-29.248-40.348,0-12.9-.15-28.349,0-32.849,0.45-14.549,2.249-15.449,8.7-16.349,1.05-.15,1.2-1.65,0-1.65-4.8.15-12.449,0.45-14.7,0.45-4.2,0-11.4-.3-16.05-0.45-1.2,0-1.05,1.5,0,1.65,8.25,0.9,10.65,1.5,11.1,16.349,0.15,5.1.15,21,.15,33.6,0,30.448,10.35,43.8,39.448,43.8C858.469,517.25,868.969,498.951,868.969,470.152ZM893.692,497.3c-0.3,14.7-2.1,15-9.9,16.049a0.828,0.828,0,1,0,0,1.65c5.25-.15,11.85-0.75,15.45-0.75,3,0,9.9.6,15.6,0.75,1.5,0,1.2-1.65,0-1.65-8.7-.9-10.05-2.1-10.5-16.2-0.15-4.35-.3-12.75-0.3-22.8a65.163,65.163,0,0,0,15.3,0c3,4.949,6.45,10.2,11.1,16.8,12.15,17.249,16.2,21.6,26.849,23.4a74.683,74.683,0,0,0,14.1.45,0.834,0.834,0,1,0,0-1.65c-2.85-.3-7.05-0.75-10.8-3.6-5.25-4.05-9.749-9-16.949-18A230.646,230.646,0,0,1,929.39,471.8c10.8-5.55,16.8-14.25,16.8-25.5,0-9-3.45-24-29.7-24.6-6.3-.15-13.949.6-18.749,0.6-3.75,0-11.25-.3-14.7-0.45a0.834,0.834,0,1,0,0,1.65c7.8,0.75,10.2,3.6,10.5,12,0.45,11.55.3,19.049,0.3,30.149C893.842,476.3,893.992,486.5,893.692,497.3Zm42.148-47.4c0,9.449-4.05,19.349-13.649,20.249a64.329,64.329,0,0,1-18.15-.6c0-26.849,0-34.949.15-43.948a101.209,101.209,0,0,1,11.55.15C929.84,426.8,935.84,436.4,935.84,449.9Zm45.692,21.3c0,5.1,0,18.749-.3,25.949-0.45,12.6-1.2,15.6-9.9,16.2-0.9,0-1.2,1.65,0,1.65,4.5-.15,11.85-0.45,14.1-0.45,4.5,0,13.5,1.05,20.4,1.05,16.95,0,31.05-9,30.6-26.4-0.3-12.449-7.95-21.9-24.9-24.749,7.95-3,15.9-9.9,15.9-22.049,0-10.8-7.35-19.8-24.9-20.4-6.6-.3-12.148.15-18,0.15-4.8,0-10.8-.15-14.4-0.3-1.05,0-.9,1.8,0,1.65,10.05,0.6,10.8,4.5,11.1,16.349C981.532,450.8,981.532,460.552,981.532,471.2Zm35.4-23.249c-0.3,8.1-3.9,13.2-9.15,15.449-1.8.75-4.5,1.05-8.549,1.05-2.25,0-5.25,0-7.05-.15,0-8.4-.15-31.949-0.15-36.748,0-2.25,0-2.4,6-2.1C1011.38,426.054,1017.38,434.6,1016.93,447.953Zm8.7,44.848c-0.3,12.3-8.25,19.2-19.2,19.2-5.25,0-8.7-.6-11.4-1.95-2.25-1.2-2.55-2.25-2.7-4.8-0.15-2.7-.3-7.949-0.3-12.149,0-7.5.15-18.149,0.15-25.049h6.75C1015.58,468.052,1025.93,477.652,1025.63,492.8Zm113.28-26.1c0-23.849-16.8-46.948-47.4-46.948-30.75,0-53.1,21.449-51.9,50.848,1.2,30.9,21.15,46.5,49.8,46.5C1117.46,517.1,1138.91,495.651,1138.91,466.7Zm-52.95-42.6c28.65-.75,41.25,24.6,41.25,49.2,0,23.249-14.4,39.9-37.05,39.9-23.7,0-38.4-18.6-38.4-45C1051.76,442.553,1062.86,424.7,1085.96,424.1Zm144.45,11.249c0.3-6.9,1.8-10.949,7.5-11.849,0.9,0,1.2-1.65,0-1.65-4.05.15-9,.45-11.25,0.45-2.7,0-9.6-.3-13.65-0.45a0.825,0.825,0,1,0,0,1.65c8.4,1.2,9.6,2.85,10.2,13.8,1.05,20.849.75,40.2,0.75,57.9-8.1-7.5-19.05-18.749-32.1-31.8-15-15-27.15-27.9-38.25-40.2-2.1-2.25-2.7-2.55-3.15-2.4-0.6.15-.6,0.75-0.6,3,0.15,8.7.15,18.6,0.15,26.7,0,12.3-.3,36.148-1.5,52.8-0.6,7.65-2.55,9-7.95,10.05a0.825,0.825,0,1,0,0,1.65c4.05-.15,9.3-0.45,11.85-0.45,2.85,0,9.9.3,15.9,0.45a0.828,0.828,0,1,0,0-1.65c-9.15-.9-11.7-4.8-12-10.8-1.05-21-1.2-49.648-1.35-61.2,6.3,5.85,17.85,17.849,32.25,32.4,18.3,18.449,28.35,29.4,37.95,40.348,2.1,2.4,2.55,2.85,3.3,2.55,0.3-.15.45-0.6,0.45-3.3,0-12.3.15-23.1,0.3-33C1229.36,463.852,1229.81,449.753,1230.41,435.353Z" transform="translate(-600.236 -418.5)"/>
</svg>
